<?xml version="1.0" encoding="UTF-8"?>
<svg width="61px" height="59px" viewBox="0 0 61 59" version="1.1" xmlns="http://www.w3.org/2000/svg" xmlns:xlink="http://www.w3.org/1999/xlink">
    <!-- Generator: Sketch 52.6 (67491) - http://www.bohemiancoding.com/sketch -->
    <title>Group 3</title>
    <desc>Created with Sketch.</desc>
    <defs>
        <polygon id="path-1" points="0.000131179549 0.000336306746 60.703627 0.000336306746 60.703627 58.3189 0.000131179549 58.3189"></polygon>
    </defs>
    <g id="Page-1" stroke="none" stroke-width="1" fill="none" fill-rule="evenodd">
        <g id="Artboard" transform="translate(-35.000000, -28.000000)">
            <g id="Group-3" transform="translate(35.000000, 28.000000)">
                <mask id="mask-2" fill="white">
                    <use xlink:href="#path-1"></use>
                </mask>
                <g id="Clip-2"></g>
                <path d="M9.3527,34.6529 C13.0767,34.4239 16.3637,31.4769 16.1997,28.5139 C16.0247,25.3649 11.9347,21.8519 8.6947,22.0679 C5.5997,22.2739 2.8357,25.3539 3.0767,28.3259 C3.3557,31.7549 6.4097,34.8339 9.3527,34.6529 M31.5627,30.0469 C27.6887,30.2509 23.6357,30.4219 19.5947,30.7379 C19.1567,30.7729 18.6247,31.5889 18.4077,32.1489 C16.2307,37.7549 11.2447,39.2149 5.4337,37.1719 C1.1097,35.6509 -1.0953,30.0049 0.5407,25.2179 C1.5927,22.1389 2.5917,19.0149 6.5157,18.5909 C11.5037,18.0529 15.5977,19.6249 17.8127,24.3249 C18.7787,26.3769 20.0197,26.6779 21.9567,26.4689 C24.5357,26.1899 27.1347,26.0209 29.7277,25.9799 C31.5847,25.9509 32.5957,25.4229 32.5897,23.3479 C32.5777,19.3589 32.6977,15.3689 32.8247,11.3809 C32.8827,9.5439 32.9847,7.6939 33.2847,5.8869 C33.3817,5.3049 34.1067,4.4879 34.6657,4.3739 C40.7317,3.1409 46.8247,2.0429 52.9017,0.8629 C53.9337,0.6619 54.9977,-0.1471 55.9167,0.0239 C57.2457,0.2709 59.0377,0.8379 59.5877,1.8409 C60.5207,3.5429 59.0527,4.3359 57.3907,4.6609 C51.2377,5.8649 45.1137,7.2229 38.9397,8.3049 C37.4547,8.5649 36.9657,8.9309 36.9467,10.4169 C36.8657,16.8189 36.7427,23.2219 36.5127,29.6209 C36.3077,35.3009 35.9897,40.9789 35.6197,46.6519 C35.4987,48.4949 36.1877,49.3639 37.9807,49.5949 C43.8547,50.3499 49.7237,51.1499 55.5947,51.9349 C56.3577,52.0369 57.1617,52.0319 57.8737,52.2839 C59.6367,52.9089 61.1667,53.9329 60.5737,56.0999 C59.9737,58.2949 58.4837,58.6259 56.2497,58.1009 C48.6577,56.3159 41.0167,54.7349 33.3707,53.1949 C31.2067,52.7589 30.6107,51.9369 30.8577,49.6189 C31.3637,44.8859 31.3737,40.0989 31.5527,35.3329 C31.6107,33.7969 31.5627,32.2569 31.5627,30.0469" id="Fill-1" fill="#000000" mask="url(#mask-2)"></path>
            </g>
        </g>
    </g>
</svg>