<?xml version="1.0" encoding="UTF-8"?>
<svg width="51px" height="61px" viewBox="0 0 51 61" version="1.1" xmlns="http://www.w3.org/2000/svg" xmlns:xlink="http://www.w3.org/1999/xlink">
    <!-- Generator: Sketch 52.6 (67491) - http://www.bohemiancoding.com/sketch -->
    <title>Group 7</title>
    <desc>Created with Sketch.</desc>
    <defs>
        <polygon id="path-1" points="0.291132463 0.616955344 48.7055 0.616955344 48.7055 48 0.291132463 48"></polygon>
        <polygon id="path-3" points="0.000285415796 0.77 50.131 0.77 50.131 6.42833041 0.000285415796 6.42833041"></polygon>
    </defs>
    <g id="Page-1" stroke="none" stroke-width="1" fill="none" fill-rule="evenodd">
        <g id="Artboard" transform="translate(-49.000000, -674.000000)">
            <g id="Group-7" transform="translate(49.000000, 673.000000)">
                <g id="Group-3" transform="translate(1.000000, 13.230200)">
                    <mask id="mask-2" fill="white">
                        <use xlink:href="#path-1"></use>
                    </mask>
                    <g id="Clip-2"></g>
                    <path d="M21.3395,5.7289 C16.3315,5.7289 11.7055,5.7399 7.0795,5.7229 C5.4255,5.7169 3.6955,5.9239 2.1435,5.5019 C1.1525,5.2319 0.2705,4.6309 0.2915,3.1609 C0.2705,2.0649 1.4195,0.8109 2.3605,0.7939 C12.7575,0.5979 23.1585,0.6019 33.5575,0.6329 C37.2455,0.6449 40.9335,0.8779 44.6215,1.0079 C45.3025,1.0319 46.1895,0.7809 46.6245,1.1179 C47.7535,1.9949 48.7055,2.4659 48.7055,3.9089 C48.4495,5.4369 47.4125,6.2079 46.2735,6.2049 C40.8335,6.1939 35.3945,5.8099 29.9545,5.5859 C28.6095,5.5309 27.2605,5.5779 25.9005,5.5779 C25.9005,9.7409 25.9245,13.7359 25.8955,17.7319 C25.8395,25.7359 25.7415,33.7409 25.7005,41.7449 C25.6965,42.6069 25.9895,43.4659 26.0825,44.3319 C26.3705,47.0119 24.4495,47.6799 22.4605,47.9579 C20.0785,48.2909 20.1995,46.5929 20.2505,44.9049 C20.6415,31.8569 20.9825,18.8079 21.3395,5.7289" id="Fill-1" fill="#000000" mask="url(#mask-2)"></path>
                </g>
                <g id="Group-6" transform="translate(0.000000, 0.230200)">
                    <mask id="mask-4" fill="white">
                        <use xlink:href="#path-3"></use>
                    </mask>
                    <g id="Clip-5"></g>
                    <path d="M27.935,5.9644 C20.652,5.9644 13.368,5.9594 6.085,5.9694 C5.018,5.9714 3.939,5.9634 2.886,6.1074 C1.319,6.3234 -0.118,5.6314 0.008,3.7024 C0.08,2.5874 1.123,1.7464 2.26,1.3214 C3.917,0.7024 5.887,0.7514 7.717,0.7904 C20.602,1.0694 33.485,1.4204 46.369,1.7454 C47.049,1.7624 47.926,1.4994 48.372,1.8274 C49.416,2.5964 50.131,3.2214 50.131,4.5244 C49.745,5.6944 49.281,6.3304 48.313,6.3544 C42.481,6.4994 36.643,6.3904 30.807,6.3674 C29.85,6.3634 28.892,5.9644 27.935,5.9644 C27.935,5.8304 27.935,6.0984 27.935,5.9644" id="Fill-4" fill="#000000" mask="url(#mask-4)"></path>
                </g>
            </g>
        </g>
    </g>
</svg>