<?xml version="1.0" encoding="UTF-8"?>
<svg width="48px" height="68px" viewBox="0 0 48 68" version="1.1" xmlns="http://www.w3.org/2000/svg" xmlns:xlink="http://www.w3.org/1999/xlink">
    <!-- Generator: Sketch 52.6 (67491) - http://www.bohemiancoding.com/sketch -->
    <title>Group 3 Copy 2</title>
    <desc>Created with Sketch.</desc>
    <defs>
        <polygon id="path-1" points="0.00015739954 -0.000187135705 47.483 -0.000187135705 47.483 68.0236504 0.00015739954 68.0236504"></polygon>
    </defs>
    <g id="Page-1" stroke="none" stroke-width="1" fill="none" fill-rule="evenodd">
        <g id="Artboard" transform="translate(-210.000000, -128.000000)">
            <g id="Group-3-Copy-2" transform="translate(210.000000, 128.000000)">
                <mask id="mask-2" fill="white">
                    <use xlink:href="#path-1"></use>
                </mask>
                <g id="Clip-2"></g>
                <path d="M33.1373,48.0219 C30.4353,43.3789 28.0393,39.2599 25.3273,34.5999 C22.2293,39.2389 19.4513,43.3999 16.3653,48.0219 L33.1373,48.0219 Z M28.5043,5.5789 C28.5043,10.4549 28.5103,15.3719 28.5023,20.2899 C28.4963,23.4619 27.8733,26.7789 28.6013,29.7689 C29.5263,33.5649 31.2323,37.2689 33.1543,40.7019 C36.4153,46.5259 40.1003,52.1129 43.6253,57.7879 C44.8883,59.8219 46.4683,61.7149 47.3683,63.8929 C47.7503,64.8189 47.1293,66.7749 46.3023,67.4459 C44.9243,68.5639 43.3483,68.0029 42.5023,66.2499 C40.7733,62.6689 39.0573,59.0819 37.3303,55.5009 C36.5463,53.8729 35.3723,53.0859 33.4333,53.0889 C27.0433,53.1009 20.6523,52.8779 14.2623,52.9309 C13.4593,52.9369 12.4343,53.9019 11.9053,54.6879 C9.5753,58.1469 7.4283,61.7299 5.1213,65.2049 C4.5583,66.0529 3.7423,66.9959 2.8483,67.2789 C2.1313,67.5059 0.8873,67.0239 0.3143,66.4329 C-0.0977,66.0079 -0.0887,64.7229 0.2493,64.1049 C1.2723,62.2379 2.5263,60.4949 3.7263,58.7289 C9.9693,49.5359 16.2593,40.3739 22.4283,31.1329 C23.2293,29.9329 23.8033,28.3399 23.8383,26.9139 C23.9933,20.6029 23.8393,14.2849 23.9603,7.9719 C23.9993,5.9359 23.4563,5.3899 21.3453,5.3369 C17.8833,5.2499 14.4153,4.7059 10.9963,4.0959 C10.1423,3.9429 9.5413,3.1299 9.5213,2.1149 C9.5013,1.1369 10.6223,0.3419 11.6423,0.2639 C13.7373,0.1019 15.8793,0.6749 17.9953,0.6379 C24.7823,0.5189 31.5653,0.2459 38.3503,0.0659 C39.8023,0.0269 41.3353,-0.1351 42.6853,0.2589 C42.9293,0.3309 43.1553,0.4669 43.3693,0.6429 C44.3913,1.4819 44.4303,3.0429 43.4603,3.9409 C43.0473,4.3229 42.6253,4.6199 42.1753,4.6699 C37.7693,5.1619 33.3233,5.2939 28.5043,5.5789 Z" id="Fill-1" fill="#FFFFFF" mask="url(#mask-2)"></path>
            </g>
        </g>
    </g>
</svg>