<?xml version="1.0" encoding="UTF-8"?>
<svg width="61px" height="69px" viewBox="0 0 61 69" version="1.1" xmlns="http://www.w3.org/2000/svg" xmlns:xlink="http://www.w3.org/1999/xlink">
    <!-- Generator: Sketch 52.6 (67491) - http://www.bohemiancoding.com/sketch -->
    <title>Group 3</title>
    <desc>Created with Sketch.</desc>
    <defs>
        <polygon id="path-1" points="0 0.000239353567 60.2795 0.000239353567 60.2795 68.1685 0 68.1685"></polygon>
    </defs>
    <g id="Page-1" stroke="none" stroke-width="1" fill="none" fill-rule="evenodd">
        <g id="Artboard" transform="translate(-44.000000, -555.000000)">
            <g id="Group-3" transform="translate(44.000000, 555.000000)">
                <mask id="mask-2" fill="white">
                    <use xlink:href="#path-1"></use>
                </mask>
                <g id="Clip-2"></g>
                <path d="M60.2795,67.8776 C57.8415,68.6696 56.9085,67.7896 56.1865,65.9076 C52.8915,57.3216 45.9735,53.0286 37.5505,50.7346 C25.3285,47.4046 16.1465,53.1326 7.8345,61.0646 C6.6115,62.2316 6.0015,64.0246 5.0335,65.4786 C4.5035,66.2736 3.9555,67.2416 3.1685,67.6336 C2.2535,68.0886 1.0675,67.9966 -0.0005,68.1426 C0.1755,67.1806 0.0645,66.0226 0.5695,65.2876 C6.5225,56.6136 13.4745,48.6146 26.4035,45.8896 C26.4035,40.5156 26.3655,35.1926 26.4185,29.8696 C26.4465,27.0616 26.5385,24.2466 26.7755,21.4486 C26.9455,19.4506 25.9705,18.7826 24.2365,18.7766 C21.3215,18.7656 18.4015,18.9146 15.4945,18.7676 C14.5435,18.7196 13.6285,17.9626 12.6965,17.5296 C13.5155,16.6176 14.2425,15.0486 15.1715,14.9186 C17.9355,14.5326 20.8055,14.4506 23.5825,14.7426 C26.3895,15.0366 27.5235,14.2646 27.3735,11.3636 C27.2335,8.6496 27.4325,5.9176 27.4905,3.1926 C27.5275,1.4646 28.0375,0.0276 30.0735,0.0006 C32.2825,-0.0294 32.0965,1.8186 32.1385,3.1656 C32.2515,6.8286 32.1775,10.4986 32.1775,14.6056 C36.2955,14.7876 40.6385,15.0156 44.9845,15.1526 C46.3725,15.1966 47.8075,14.8876 47.9835,16.9316 C48.1715,19.1046 46.5975,19.3646 45.1365,19.3536 C41.5645,19.3256 37.9815,19.2436 34.4305,18.8946 C32.4295,18.6986 31.5425,19.0406 31.5615,21.2386 C31.6275,28.8216 31.5135,36.4066 31.6485,43.9886 C31.6615,44.6906 32.9165,45.9266 33.6555,45.9736 C40.6965,46.4256 46.9745,49.0036 52.4245,53.2216 C57.0615,56.8106 60.0155,61.6646 60.2795,67.8776" id="Fill-1" fill="#000000" mask="url(#mask-2)"></path>
            </g>
        </g>
    </g>
</svg>