<?xml version="1.0" encoding="UTF-8"?>
<svg width="75px" height="62px" viewBox="0 0 75 62" version="1.1" xmlns="http://www.w3.org/2000/svg" xmlns:xlink="http://www.w3.org/1999/xlink">
    <!-- Generator: Sketch 52.6 (67491) - http://www.bohemiancoding.com/sketch -->
    <title>Group 3</title>
    <desc>Created with Sketch.</desc>
    <defs>
        <polygon id="path-1" points="0 -4.5853189e-05 74.264 -4.5853189e-05 74.264 61.2606344 0 61.2606344"></polygon>
    </defs>
    <g id="Page-1" stroke="none" stroke-width="1" fill="none" fill-rule="evenodd">
        <g id="Artboard" transform="translate(-40.000000, -444.000000)">
            <g id="Group-3" transform="translate(40.000000, 444.000000)">
                <mask id="mask-2" fill="white">
                    <use xlink:href="#path-1"></use>
                </mask>
                <g id="Clip-2"></g>
                <path d="M33.1388,30.6779 C37.3898,27.4929 40.6718,17.0169 38.9718,12.1829 C36.5658,12.3019 34.6458,13.4619 33.8238,15.6559 C32.0368,20.4299 31.1498,25.3449 33.1388,30.6779 M3.9288,12.9479 C5.6458,18.0589 6.9228,23.3769 9.1978,28.2259 C11.8148,33.8039 15.2958,38.9779 18.4418,44.3029 C19.4828,46.0659 20.6498,45.7789 21.8988,44.4099 C24.1828,41.9069 26.5958,39.5179 28.8048,36.9529 C29.3488,36.3209 29.5678,35.1719 29.5028,34.2929 C29.2108,30.3709 28.7178,26.4639 28.3818,22.5449 C27.8868,16.7899 29.9598,12.1639 34.4768,8.5199 C35.2888,7.8649 36.2138,5.9249 35.9228,5.5889 C35.0218,4.5509 33.4638,3.2569 32.3308,3.3999 C28.7388,3.8549 25.8608,5.7439 24.0008,9.0739 C23.3768,10.1909 22.3038,11.3279 21.1698,11.7639 C20.6778,11.9539 19.3568,10.5129 18.6848,9.6109 C16.8438,7.1409 14.7578,4.8079 11.5168,4.9049 C7.3458,5.0299 4.5408,8.4859 3.9288,12.9479 M44.6778,12.0089 C44.5498,12.4389 44.3968,12.7039 44.4018,12.9659 C44.5388,20.3099 42.2568,26.8059 37.7858,32.6239 C36.7308,33.9969 35.3608,35.8169 35.4998,37.3039 C36.2168,44.9639 41.0438,50.5119 45.9528,55.9119 C47.1208,57.1949 48.5928,57.0669 49.8468,55.8859 C54.0098,51.9669 58.4168,48.2619 62.2228,44.0199 C66.8688,38.8409 70.5248,33.0739 70.4548,25.5879 C70.3858,18.2449 63.9368,12.7129 57.3278,14.8399 C55.9238,15.2919 54.6918,16.4109 53.5078,17.3779 C52.0298,18.5859 51.1138,18.9609 50.0128,16.7859 C48.9348,14.6549 47.6648,12.3159 44.6778,12.0089 M31.9538,41.0909 C28.3908,44.3609 25.0798,47.3259 21.8608,50.3879 C20.2148,51.9529 19.2488,51.9909 17.8478,49.8879 C14.4858,44.8409 10.3798,40.2519 7.3638,35.0229 C4.7338,30.4639 2.9158,25.3719 1.2298,20.3509 C-0.6332,14.8029 -0.7842,9.2169 3.6558,4.5449 C8.0908,-0.1211 17.3508,0.5359 21.2718,6.0189 C22.0938,5.4599 23.1018,5.0379 23.7348,4.2959 C26.1388,1.4809 29.4458,0.7209 32.8128,0.1099 C35.8478,-0.4401 37.9088,1.1449 39.8798,3.2699 C40.9548,4.4299 42.6268,5.0339 44.0218,5.9019 C46.6998,7.5659 49.6068,8.9659 51.9608,11.0049 C53.4718,12.3129 54.3368,12.7049 56.1448,11.7249 C64.3688,7.2709 72.7448,12.7049 73.9478,20.9509 C75.2078,29.5899 72.6548,37.2729 67.2128,43.9309 C63.7858,48.1249 60.1618,52.2029 56.2478,55.9359 C53.9778,58.1019 51.0348,59.6249 48.2258,61.1209 C47.5008,61.5079 45.8418,61.0349 45.1188,60.3889 C40.6758,56.4159 36.7738,51.9929 34.4528,46.3729 C33.6878,44.5179 32.7388,42.7389 31.9538,41.0909" id="Fill-1" fill="#000000" mask="url(#mask-2)"></path>
            </g>
        </g>
    </g>
</svg>