<?xml version="1.0" encoding="UTF-8"?>
<svg width="67px" height="60px" viewBox="0 0 67 60" version="1.1" xmlns="http://www.w3.org/2000/svg" xmlns:xlink="http://www.w3.org/1999/xlink">
    <!-- Generator: Sketch 52.6 (67491) - http://www.bohemiancoding.com/sketch -->
    <title>Group 3 Copy 3</title>
    <desc>Created with Sketch.</desc>
    <defs>
        <polygon id="path-1" points="0.000193702681 -0.0001 66.337 -0.0001 66.337 59.5168534 0.000193702681 59.5168534"></polygon>
    </defs>
    <g id="Page-1" stroke="none" stroke-width="1" fill="none" fill-rule="evenodd">
        <g id="Artboard" transform="translate(-203.000000, -238.000000)">
            <g id="Group-3-Copy-3" transform="translate(203.000000, 238.000000)">
                <mask id="mask-2" fill="white">
                    <use xlink:href="#path-1"></use>
                </mask>
                <g id="Clip-2"></g>
                <path d="M32.5779,21.453 C32.5779,21.462 32.5779,21.471 32.5779,21.479 C33.0649,21.479 33.5549,21.443 34.0379,21.485 C37.4189,21.783 40.5499,20.878 41.8979,17.71 C43.4489,14.064 42.6809,10.248 40.6389,6.818 C40.3209,6.285 39.6719,5.687 39.1069,5.606 C35.1929,5.046 31.2689,4.466 27.3289,4.268 C26.5309,4.228 25.0189,5.719 24.9259,6.618 C24.5759,9.988 24.5689,13.407 24.6439,16.804 C24.7129,19.936 26.2089,21.296 29.3649,21.445 C30.4339,21.496 31.5069,21.453 32.5779,21.453 M39.1439,55.015 C43.4359,55.105 44.0669,54.2 42.6789,50.048 C40.9259,44.807 39.0329,39.605 37.5209,34.294 C35.3799,26.772 35.1409,26.428 27.3969,25.747 C27.2029,25.73 26.1129,25.824 26.0039,25.91 C25.2299,26.521 24.7089,26.911 24.6529,27.605 C24.0399,35.234 23.7759,42.892 23.0799,50.512 C22.8549,52.975 24.0769,53.778 25.8289,54.099 C29.4339,54.758 34.9789,55.021 39.1439,55.015 M18.0509,50.777 C18.4539,45.328 18.9389,40.404 19.1569,35.469 C19.6119,25.184 19.8369,14.889 20.3449,4.607 C20.5329,0.791 21.3729,-0.035 25.1719,0.001 C29.4009,0.042 33.6659,0.367 37.8409,1.031 C46.4439,2.4 49.6769,14.66 44.5559,21.426 C43.4659,22.866 41.8369,23.9 40.7609,25.347 C40.1959,26.107 39.8919,27.47 40.1469,28.368 C42.2619,35.822 44.5699,43.221 46.7379,50.66 C47.2789,52.513 48.5119,52.5 49.6189,51.702 C53.1979,49.123 56.6529,46.37 60.1429,43.668 C61.2799,42.788 62.2739,41.643 63.5349,41.036 C64.1879,40.721 65.4599,41.086 66.1009,41.59 C66.4559,41.869 66.4039,43.435 65.9899,43.8 C61.9469,47.364 58.0609,51.202 53.6119,54.188 C41.7799,62.128 29.2059,59.742 16.5469,56.333 C10.2139,54.627 5.3989,50.667 0.5479,46.72 C-0.1621,46.142 -0.1541,43.79 0.4119,42.74 C1.3229,41.05 2.4069,42.07 3.5599,43.158 C7.5339,46.909 11.9789,49.901 18.0509,50.777" id="Fill-1" fill="#FFFFFF" mask="url(#mask-2)"></path>
            </g>
        </g>
    </g>
</svg>