<?xml version="1.0" encoding="UTF-8"?>
<svg width="50px" height="64px" viewBox="0 0 50 64" version="1.1" xmlns="http://www.w3.org/2000/svg" xmlns:xlink="http://www.w3.org/1999/xlink">
    <!-- Generator: Sketch 52.6 (67491) - http://www.bohemiancoding.com/sketch -->
    <title>Group 3</title>
    <desc>Created with Sketch.</desc>
    <defs>
        <polygon id="path-1" points="0.000144510488 0.000146923004 49.27 0.000146923004 49.27 63.5835508 0.000144510488 63.5835508"></polygon>
    </defs>
    <g id="Page-1" stroke="none" stroke-width="1" fill="none" fill-rule="evenodd">
        <g id="Artboard" transform="translate(-49.000000, -339.000000)">
            <g id="Group-3" transform="translate(49.000000, 339.000000)">
                <mask id="mask-2" fill="white">
                    <use xlink:href="#path-1"></use>
                </mask>
                <g id="Clip-2"></g>
                <path d="M10.6531,34.2171 C23.4661,40.4941 36.3981,44.4251 49.1761,48.7321 C49.2071,49.1391 49.2381,49.5461 49.2701,49.9531 C48.0601,50.6781 46.9371,51.7181 45.6271,52.0791 C32.9071,55.5851 20.1551,58.9791 7.4121,62.4011 C5.8291,62.8261 4.2571,63.4491 2.6501,63.5671 C1.6041,63.6441 0.6981,63.4781 0.1181,62.4801 C-0.0909,61.4831 -0.0719,60.4751 0.5881,59.7921 C1.3481,59.0061 2.5181,58.4711 3.6051,58.1701 C12.1201,55.8141 20.6561,53.5301 29.1921,51.2471 C31.2281,50.7021 33.2881,50.2451 35.5021,49.0931 C34.5521,48.7111 33.6011,48.3311 32.6511,47.9481 C23.3921,44.2091 14.1121,40.5221 4.9081,36.6531 C3.9721,36.2591 2.8501,34.6811 2.9711,33.8151 C3.1191,32.7591 4.3111,31.3961 5.3651,30.9961 C12.2651,28.3791 19.2391,25.9581 26.2101,23.5341 C29.8691,22.2621 33.5821,21.1431 37.2451,19.8811 C37.9141,19.6501 38.4611,19.0611 39.7011,18.1901 C33.9741,16.4841 28.8711,15.0941 23.8611,13.4241 C20.6661,12.3591 17.6091,10.8771 14.4891,9.5851 C10.9901,8.1351 7.4911,6.6861 3.9901,5.2401 C2.3701,4.5721 0.8021,3.7631 1.6891,1.6311 C2.5001,-0.3189 3.9691,-0.2579 5.7911,0.4601 C17.2111,4.9551 28.6601,9.3771 40.1211,13.7661 C41.8341,14.4221 43.7851,14.5321 45.3981,15.3471 C46.6531,15.9811 47.8881,17.1701 48.4381,18.4181 C48.6451,18.8891 47.0741,20.6771 46.0141,21.0831 C40.0531,23.3661 34.0031,25.4181 27.9781,27.5341 C23.0351,29.2701 18.0791,30.9701 13.1451,32.7281 C12.4961,32.9591 11.9361,33.4391 10.6531,34.2171" id="Fill-1" fill="#000000" mask="url(#mask-2)"></path>
            </g>
        </g>
    </g>
</svg>